<!-- Generator: Adobe Illustrator 22.1.0, SVG Export Plug-In  -->
<svg version="1.1"
	 xmlns="http://www.w3.org/2000/svg" xmlns:xlink="http://www.w3.org/1999/xlink" xmlns:a="http://ns.adobe.com/AdobeSVGViewerExtensions/3.0/"
	 x="0px" y="0px" width="1957.366px" height="649.828px" viewBox="0 0 1957.366 649.828"
	 style="enable-background:new 0 0 1957.366 649.828;" xml:space="preserve">
<style type="text/css">
	.st0{fill:#FFFFFF;}
</style>
<defs>
</defs>
<g>
	<path class="st0" d="M192.794,216.9c-3.6,7.016-8.756,12.861-15.471,17.539c-6.713,4.677-14.785,8.185-24.221,10.523
		c-9.438,2.339-19.891,3.508-31.369,3.508h-97.18V43.845h94.836c21.006,0,37.49,4.778,49.457,14.324
		c11.963,9.551,17.945,22.413,17.945,38.586v0.585c0,5.847-0.727,11.013-2.178,15.493c-1.453,4.485-3.389,8.527-5.811,12.131
		c-2.42,3.608-5.225,6.774-8.422,9.501c-3.197,2.731-6.633,5.069-10.309,7.016c11.83,4.485,21.143,10.573,27.934,18.27
		c6.787,7.701,10.186,18.371,10.186,32.01v0.584C198.192,201.699,196.394,209.884,192.794,216.9z M142.36,104.356
		c0-6.819-2.535-12.03-7.602-15.639c-5.07-3.604-12.377-5.408-21.924-5.408H68.403v43.264h41.508c9.939,0,17.832-1.704,23.68-5.116
		c5.846-3.407,8.77-8.915,8.77-16.516V104.356z M153.761,186.206c0-6.819-2.631-12.227-7.893-16.224
		c-5.262-3.992-13.74-5.992-25.432-5.992H68.403v45.018h53.494c9.939,0,17.73-1.8,23.385-5.408c5.65-3.604,8.479-9.208,8.479-16.809
		V186.206z"/>
	<path class="st0" d="M237.653,248.47V43.845h45.016V248.47H237.653z"/>
	<path class="st0" d="M333.825,248.47V43.845h154.053v40.049H378.257v41.509h96.467v40.048h-96.467v42.972h111.082v40.048H333.825z"
		/>
	<path class="st0" d="M673.208,248.47l-99.096-130.083V248.47h-44.434V43.845h41.51l95.881,125.99V43.845h44.434V248.47H673.208z"/>
	<path class="st0" d="M865.554,249.932h-39.756L743.071,43.845h49.695l53.494,144.114l53.494-144.114h48.525L865.554,249.932z"/>
	<path class="st0" d="M979.851,248.47V43.845h154.055v40.049h-109.621v41.509h96.465v40.048h-96.465v42.972h111.082v40.048H979.851z
		"/>
	<path class="st0" d="M1319.235,248.47l-99.098-130.083V248.47h-44.432V43.845h41.51l95.881,125.99V43.845h44.434V248.47H1319.235z"
		/>
	<path class="st0" d="M1408.685,248.47V43.845h45.016V248.47H1408.685z"/>
	<path class="st0" d="M1685.511,186.499c-5.262,12.474-12.715,23.289-22.361,32.447c-9.646,9.162-21.148,16.37-34.494,21.632
		c-13.352,5.262-28.018,7.893-43.994,7.893h-79.805V43.845h79.805c15.977,0,30.643,2.586,43.994,7.747
		c13.346,5.166,24.848,12.327,34.494,21.485c9.646,9.162,17.1,19.928,22.361,32.302c5.262,12.378,7.893,25.774,7.893,40.194v0.584
		C1693.403,160.583,1690.772,174.029,1685.511,186.499z M1646.341,146.158c0-8.961-1.512-17.247-4.531-24.847
		c-3.023-7.601-7.213-14.128-12.57-19.586c-5.361-5.453-11.838-9.692-19.439-12.716c-7.6-3.02-15.98-4.531-25.139-4.531h-34.787
		v123.359h34.787c9.158,0,17.539-1.461,25.139-4.385c7.602-2.923,14.078-7.111,19.439-12.569c5.357-5.454,9.547-11.885,12.57-19.293
		c3.02-7.404,4.531-15.686,4.531-24.848V146.158z"/>
	<path class="st0" d="M1933.69,187.229c-5.457,12.767-13.008,23.971-22.654,33.617s-21.148,17.247-34.494,22.801
		c-13.352,5.554-27.916,8.331-43.701,8.331c-15.787,0-30.307-2.777-43.557-8.331c-13.256-5.554-24.701-13.054-34.348-22.509
		c-9.646-9.45-17.15-20.559-22.508-33.324c-5.363-12.762-8.039-26.455-8.039-41.071v-0.585c0-14.616,2.727-28.305,8.184-41.071
		c5.455-12.761,13.01-23.97,22.656-33.616s21.143-17.247,34.494-22.801c13.346-5.555,27.916-8.332,43.701-8.332
		s30.301,2.777,43.555,8.332c13.252,5.554,24.701,13.058,34.348,22.508c9.648,9.455,17.146,20.563,22.51,33.325
		c5.357,12.766,8.039,26.455,8.039,41.071v0.584C1941.876,160.774,1939.144,174.467,1933.69,187.229z M1894.812,146.158
		c0-8.77-1.512-17.05-4.531-24.847c-3.023-7.793-7.307-14.616-12.861-20.463s-12.131-10.474-19.732-13.885
		c-7.6-3.408-15.885-5.116-24.846-5.116c-9.164,0-17.494,1.658-24.994,4.97c-7.504,3.316-13.936,7.893-19.293,13.739
		c-5.363,5.846-9.551,12.62-12.57,20.316c-3.023,7.7-4.531,15.931-4.531,24.701v0.584c0,8.77,1.508,17.056,4.531,24.848
		c3.02,7.797,7.309,14.616,12.863,20.462c5.553,5.847,12.08,10.479,19.584,13.886c7.5,3.412,15.832,5.115,24.994,5.115
		c8.961,0,17.246-1.653,24.848-4.969c7.6-3.312,14.076-7.894,19.439-13.739c5.357-5.847,9.545-12.616,12.568-20.316
		c3.02-7.696,4.531-15.932,4.531-24.701V146.158z"/>
	<path class="st0" d="M563.886,599.255l-18.709-45.895h-86.527l-18.707,45.895h-45.895l87.695-206.086h41.51l87.697,206.086H563.886
		z M501.913,447.249l-27.186,66.356h54.373L501.913,447.249z"/>
	<path class="st0" d="M893.618,581.423c-5.654,4.485-11.84,8.332-18.562,11.547c-6.723,3.216-14.082,5.655-22.07,7.309
		c-7.992,1.653-16.955,2.484-26.893,2.484c-15.01,0-28.941-2.731-41.803-8.185c-12.861-5.454-23.971-12.908-33.324-22.363
		c-9.355-9.45-16.662-20.608-21.924-33.471c-5.262-12.861-7.893-26.601-7.893-41.217v-0.585c0-14.616,2.631-28.305,7.893-41.071
		c5.262-12.761,12.568-23.97,21.924-33.616c9.354-9.646,20.559-17.247,33.617-22.801c13.053-5.555,27.477-8.332,43.264-8.332
		c9.545,0,18.27,0.781,26.162,2.339c7.893,1.562,15.055,3.704,21.484,6.432c6.432,2.73,12.375,6.042,17.832,9.938
		c5.453,3.9,10.523,8.185,15.201,12.862l-28.646,33.032c-7.994-7.208-16.129-12.862-24.41-16.955
		c-8.285-4.092-17.59-6.139-27.916-6.139c-8.578,0-16.516,1.658-23.824,4.97c-7.309,3.316-13.594,7.893-18.855,13.739
		c-5.262,5.846-9.354,12.62-12.277,20.316c-2.922,7.7-4.385,15.931-4.385,24.701v0.584c0,8.77,1.463,17.056,4.385,24.848
		c2.924,7.797,6.967,14.616,12.131,20.462c5.162,5.847,11.402,10.479,18.709,13.886c7.309,3.412,15.348,5.115,24.117,5.115
		c11.693,0,21.582-2.142,29.67-6.431c8.084-4.284,16.123-10.131,24.117-17.539l28.646,28.939
		C904.726,571.877,899.269,576.943,893.618,581.423z"/>
	<path class="st0" d="M1098.241,599.255l-18.709-45.895h-86.527l-18.709,45.895h-45.895l87.697-206.086h41.51l87.695,206.086
		H1098.241z M1036.269,447.249l-27.186,66.356h54.371L1036.269,447.249z"/>
	<path class="st0" d="M1319.271,565.785c-3.682,7.893-8.812,14.521-15.393,19.878c-6.588,5.362-14.443,9.455-23.568,12.277
		c-9.131,2.822-19.248,4.238-30.357,4.238c-15.592,0-30.889-2.681-45.893-8.038c-15.01-5.358-28.648-13.594-40.926-24.701
		l26.602-31.863c9.354,7.601,18.949,13.644,28.793,18.124c9.838,4.485,20.609,6.724,32.301,6.724c9.355,0,16.613-1.704,21.779-5.116
		c5.16-3.407,7.746-8.135,7.746-14.178v-0.584c0-2.924-0.539-5.504-1.613-7.747c-1.076-2.237-3.129-4.334-6.156-6.284
		c-3.027-1.946-7.23-3.896-12.602-5.847c-5.377-1.946-12.359-3.992-20.955-6.139c-10.359-2.53-19.736-5.357-28.141-8.478
		c-8.404-3.115-15.535-6.966-21.395-11.547c-5.865-4.576-10.404-10.276-13.629-17.101c-3.225-6.819-4.838-15.297-4.838-25.432
		v-0.585c0-9.354,1.74-17.781,5.225-25.285c3.486-7.5,8.373-13.981,14.666-19.439c6.295-5.454,13.809-9.646,22.547-12.57
		c8.732-2.923,18.365-4.385,28.889-4.385c15.004,0,28.793,2.243,41.363,6.724c12.57,4.485,24.117,10.916,34.641,19.293
		l-23.387,33.909c-9.162-6.234-18.123-11.153-26.893-14.762c-8.77-3.604-17.539-5.408-26.309-5.408s-15.348,1.708-19.732,5.115
		c-4.385,3.412-6.576,7.65-6.576,12.716v0.585c0,3.316,0.635,6.189,1.904,8.624c1.27,2.438,3.562,4.631,6.887,6.577
		c3.32,1.95,7.865,3.8,13.631,5.554c5.764,1.754,13.039,3.8,21.836,6.139c10.355,2.731,19.586,5.801,27.697,9.208
		c8.107,3.412,14.945,7.505,20.518,12.277c5.568,4.778,9.77,10.378,12.602,16.809c2.832,6.432,4.252,14.132,4.252,23.094v0.584
		C1324.786,548.88,1322.946,557.892,1319.271,565.785z"/>
	<path class="st0" d="M1516.257,599.255l-18.709-45.895h-86.527l-18.707,45.895h-45.895l87.695-206.086h41.51l87.697,206.086
		H1516.257z M1454.284,447.249l-27.186,66.356h54.373L1454.284,447.249z"/>
</g>
</svg>